<?xml version="1.0" standalone="no"?>
<!DOCTYPE svg PUBLIC "-//W3C//DTD SVG 1.1//EN" "http://www.w3.org/Graphics/SVG/1.1/DTD/svg11.dtd">
<svg xmlns="http://www.w3.org/2000/svg">
<defs >
<font id="FiraSans" horiz-adv-x="521" ><font-face
    font-family="Fira Sans Light"
    units-per-em="1000"
    panose-1="2 11 4 3 5 0 0 2 0 4"
    ascent="1050"
    descent="-500"
    alphabetic="0" />
<glyph unicode=" " glyph-name="space" horiz-adv-x="276" />
<glyph unicode="!" glyph-name="exclam" horiz-adv-x="238" d="M86 218L147 685H208L138 218H86ZM113 84T125 72T137 40Q137 18 123 4T86 -11Q67 -11 55 1T42 32Q42 54 57 69T93 84Q113 84 125 72Z" />
<glyph unicode="&quot;" glyph-name="quotedbl" horiz-adv-x="360" d="M349 685L305 434H261L288 685H349ZM191 685L147 434H103L130 685H191Z" />
<glyph unicode="#" glyph-name="numbersign" horiz-adv-x="500" d="M373 227H444L438 180H360L311 0H257L306 180H128L79 0H26L75 180H3L10 227H88L149 452H79L85 499H162L207 665H260L215 499H393L439 665H492L447 499H519L513 452H434L373 227ZM202 452L141
227H319L381 452H202Z" />
<glyph unicode="$" glyph-name="dollar" d="M374 352T417 311T461 202Q461 153 440 107T370 29T247 -10L227 -151H176L196 -10Q84 -4 12 73L50 108Q114 39 214 39Q305 39 353 84T401 200Q401 245 370 275T266 330Q179 358 139 398T98 499Q98 545 120 583T187 646T292
674L313 819H363L343 674Q389 670 425 652T496 600L458 565Q396 626 314 626Q244 626 201 594T157 501Q157 456 187 429T291 378Q374 352 417 311Z" />
<glyph unicode="%" glyph-name="percent" horiz-adv-x="790" d="M150 -24L110 4L669 703L709 676L150 -24ZM317 676T352 640T388 543Q388 499 371 455T315 381T218 351Q159 351 123 388T87 486Q87 529 104 573T160 646T257 676Q317 676 352 640ZM214 634T188 609T151
550T140 484Q140 442 158 418T218 393Q262 393 288 418T325 479T336 544Q336 585 318 609T258 634Q214 634 188 609ZM652 314T687 278T723 181Q723 137 706 93T650 19T553 -11Q494 -11 458 26T422 124Q422 167 439 211T495 284T592 314Q652 314 687 278ZM549 272T523
247T486 188T475 122Q475 81 493 56T553 31Q597 31 623 56T660 117T671 182Q671 223 653 247T593 272Q549 272 523 247Z" />
<glyph unicode="&amp;" glyph-name="ampersand" horiz-adv-x="741" d="M395 696T431 679T488 631T509 563Q509 501 467 458T326 364L504 172Q553 251 592 345L644 326Q594 217 537 136L641 22L595 -10L500 95Q451 44 394 17T264 -11Q210 -11 169 11T105 71T82
157Q82 223 118 273T247 373Q208 417 189 454T170 531Q170 606 219 651T349 696Q395 696 431 679ZM288 651T258 616T227 531Q227 500 242 468T294 397Q382 442 417 478T452 563Q452 603 423 627T349 651Q288 651 258 616ZM200 297T171 254T141 159Q141 107 176
72T269 37Q329 37 376 61T467 131L278 339Q200 297 171 254Z" />
<glyph unicode="&apos;" glyph-name="quotesingle" horiz-adv-x="201" d="M191 685L147 434H103L130 685H191Z" />
<glyph unicode="(" glyph-name="parenleft" horiz-adv-x="321" d="M281 731T241 670T170 530T124 347Q115 283 115 229Q115 131 140 55T215 -115L176 -136Q135 -63 112 -14T73 99T57 237Q57 290 66 353Q81 462 115 545T193 689T311 839L346 811Q281 731 241 670Z" />
<glyph unicode=")" glyph-name="parenright" horiz-adv-x="320" d="M210 763T234 714T273 602T289 464Q289 408 279 347Q264 238 230 155T152 11T34 -139L-1 -111Q64 -32 105 29T176 170T222 353Q231 419 231 473Q231 571 206 646T130 815L169 836Q210 763 234 714Z" />
<glyph unicode="*" glyph-name="asterisk" horiz-adv-x="433" d="M369 420L320 386L253 518L150 386L108 419L224 541L78 582L100 632L241 576L255 736H313L282 578L434 635L445 582L287 542L369 420Z" />
<glyph unicode="+" glyph-name="plus" horiz-adv-x="490" d="M435 356L428 306H279L257 154H202L224 306H75L82 356H231L253 508H308L286 356H435Z" />
<glyph unicode="," glyph-name="comma" horiz-adv-x="208" d="M95 84T107 72T119 40Q119 28 114 15T98 -19L23 -151H-20L42 -3Q24 8 24 33Q24 54 39 69T75 84Q95 84 107 72Z" />
<glyph unicode="-" glyph-name="hyphen" horiz-adv-x="398" d="M341 338L334 288H71L78 338H341Z" />
<glyph unicode="." glyph-name="period" horiz-adv-x="207" d="M95 84T106 72T118 40Q118 19 104 4T67 -11Q48 -11 36 1T24 32Q24 54 38 69T75 84Q95 84 106 72Z" />
<glyph unicode="/" glyph-name="slash" horiz-adv-x="517" d="M117 -100L68 -86L424 804L473 791L117 -100Z" />
<glyph unicode="0" glyph-name="zero" horiz-adv-x="547" d="M412 676T456 617T500 442Q500 340 475 237T392 61T239 -11Q155 -11 111 49T67 224Q67 325 92 428T175 604T328 676Q412 676 456 617ZM177 628T135 330Q126 263 126 214Q126 37 240 37Q390 37 432 335Q441
403 441 452Q441 628 328 628Q177 628 135 330Z" />
<glyph unicode="1" glyph-name="one" horiz-adv-x="410" d="M195 0L279 597L102 494L81 542L297 665H346L253 0H195Z" />
<glyph unicode="2" glyph-name="two" horiz-adv-x="476" d="M355 676T399 633T444 519Q444 462 416 408T312 272T82 50L394 51L378 0H5L12 50Q178 205 255 287T358 417T384 517Q384 570 354 598T272 627Q226 627 189 608T115 549L76 584Q122 632 170 654T276 676Q355
676 399 633Z" />
<glyph unicode="3" glyph-name="three" horiz-adv-x="484" d="M351 676T395 635T439 529Q439 469 400 418T283 353Q340 351 376 314T412 211Q412 161 387 110T309 24T174 -11Q58 -11 -6 77L34 109Q62 71 95 55T174 38Q234 38 274 64T334 131T353 217Q353 327 223
327H177L191 374H223Q273 374 309 397T362 457T380 529Q380 576 351 602T271 629Q228 629 192 614T114 563L84 601Q130 639 176 657T274 676Q351 676 395 635Z" />
<glyph unicode="4" glyph-name="four" horiz-adv-x="516" d="M379 175L354 0H298L322 175H33L39 218L302 676L351 656L103 223H329L363 418H413L386 223H475L468 175H379Z" />
<glyph unicode="5" glyph-name="five" horiz-adv-x="484" d="M185 617L151 390Q206 421 267 421Q343 421 386 374T430 244Q430 187 405 128T324 29T186 -11Q126 -11 83 10T7 71L47 104Q74 70 107 54T187 38Q251 38 292 71T352 152T371 245Q371 309 339 341T253
374Q220 374 195 367T137 342H90L135 665H469L454 617H185Z" />
<glyph unicode="6" glyph-name="six" horiz-adv-x="520" d="M381 433T424 390T468 265Q468 205 443 141T367 33T239 -11Q147 -11 105 48T63 212Q63 258 70 304Q86 418 126 502T225 631T358 676Q395 676 424 666T478 636L450 597Q408 628 356 628Q274 628 214 548T132
337Q208 433 314 433Q381 433 424 390ZM300 37T338 75T393 166T410 266Q410 326 382 356T305 386Q254 386 208 356T124 272Q120 237 120 201Q120 120 149 79T241 37Q300 37 338 75Z" />
<glyph unicode="7" glyph-name="seven" horiz-adv-x="434" d="M102 -8L49 10L387 616H80L86 665H456L450 620L102 -8Z" />
<glyph unicode="8" glyph-name="eight" horiz-adv-x="535" d="M411 324T441 287T471 197Q471 142 443 95T361 18T231 -11Q142 -11 91 35T39 155Q39 219 78 271T209 358Q115 404 115 496Q115 552 144 593T221 655T322 676Q392 676 441 638T491 531Q491 469 458
428T348 351Q411 324 441 287ZM172 454T196 428T277 380L306 369Q376 404 405 442T434 531Q434 578 404 604T323 630Q254 630 213 592T172 496Q172 454 196 428ZM312 38T362 81T412 200Q412 244 383 272T285 327L254 339Q165 305 132 258T98 154Q98 100 134 69T233
38Q312 38 362 81Z" />
<glyph unicode="9" glyph-name="nine" horiz-adv-x="515" d="M393 676T437 622T481 473Q481 297 396 168T84 -20L74 26Q216 68 299 141T407 338Q373 296 329 272T235 248Q165 248 122 297T78 426Q78 486 102 543T178 638T307 676Q393 676 437 622ZM293 296T335
322T417 399Q423 446 423 478Q423 628 308 628Q246 628 207 596T152 517T135 423Q135 363 164 330T245 296Q293 296 335 322Z" />
<glyph unicode=":" glyph-name="colon" horiz-adv-x="208" d="M95 84T106 72T118 40Q118 19 104 4T67 -11Q48 -11 36 1T24 32Q24 54 38 69T75 84Q95 84 106 72ZM150 474T161 462T173 430Q173 409 159 394T122 379Q103 379 91 391T79 422Q79 444 93 459T130 474Q150
474 161 462Z" />
<glyph unicode=";" glyph-name="semicolon" horiz-adv-x="209" d="M95 84T107 72T119 40Q119 28 114 15T98 -19L23 -151H-20L42 -3Q24 8 24 33Q24 54 39 69T75 84Q95 84 107 72ZM152 474T163 462T175 430Q175 409 161 394T124 379Q105 379 93 391T81 422Q81 444
95 459T132 474Q152 474 163 462Z" />
<glyph unicode="&lt;" glyph-name="less" horiz-adv-x="494" d="M124 332L420 183L392 135L69 306L77 360L446 529L463 479L124 332Z" />
<glyph unicode="=" glyph-name="equal" horiz-adv-x="491" d="M447 443L440 392H87L94 443H447ZM679 525L672 474H319L326 525H679Z" />
<glyph unicode="&gt;" glyph-name="greater" horiz-adv-x="494" d="M437 306L67 135L51 184L390 335L94 480L122 529L445 360L437 306Z" />
<glyph unicode="?" glyph-name="question" horiz-adv-x="445" d="M365 696T405 660T445 568Q445 523 428 491T385 439T316 393Q280 372 260 357T225 319T211 267Q211 248 216 226L164 216Q154 244 154 271Q154 310 170 338T210 384T275 427Q313 451 334 467T370
508T385 566Q385 604 359 625T287 647Q242 647 204 629T125 571L89 605Q135 652 184 674T291 696Q365 696 405 660ZM206 83T217 71T229 40Q229 18 215 3T178 -12Q159 -12 147 1T135 32Q135 54 149 68T186 83Q206 83 217 71Z" />
<glyph unicode="@" glyph-name="at" horiz-adv-x="1017" d="M691 696T774 652T899 530T942 355Q942 275 919 196T846 65T720 12Q669 12 642 42T611 120Q549 14 451 14Q386 14 347 59T308 185Q308 255 333 323T414 438T552 484Q628 484 693 447L657 178Q655 152
655 140Q655 59 719 59Q776 59 813 105T867 220T884 357Q884 444 848 509T742 610T572 646Q422 646 324 574T180 394T135 179Q135 80 176 4T294 -114T472 -156Q571 -156 666 -122L678 -170Q624 -187 578 -196T470 -205Q356 -205 267 -157T127 -22T77 179Q77 297
128 416T291 615T573 696Q691 696 774 652ZM507 60T545 94T602 171L638 419Q598 439 554 439Q486 439 444 399T383 299T365 178Q365 120 389 90T458 60Q507 60 545 94Z" />
<glyph unicode="A" glyph-name="A" horiz-adv-x="562" d="M127 187L40 0H-21L303 685H378L509 0H447L414 187H127ZM334 636L150 238H405L334 636Z" />
<glyph unicode="B" glyph-name="B" horiz-adv-x="595" d="M457 354T495 320T534 218Q534 125 470 63T261 0H74L170 685H340Q436 685 491 647T547 535Q547 469 508 423T393 362Q457 354 495 320ZM187 384H319Q373 384 411 404T468 459T487 533Q487 635 342 635H222L187
384ZM378 50T425 98T472 219Q472 279 433 307T324 336H181L141 50H265Q378 50 425 98Z" />
<glyph unicode="C" glyph-name="C" horiz-adv-x="548" d="M454 696T494 680T569 632L532 594Q502 621 472 633T403 645Q309 645 248 586T160 438T133 260Q133 151 181 97T309 42Q358 42 393 57T469 101L497 58Q412 -11 305 -11Q198 -11 135 60T71 263Q71 363 105
462T214 629T399 696Q454 696 494 680Z" />
<glyph unicode="D" glyph-name="D" horiz-adv-x="630" d="M429 685T505 630T581 429Q581 314 545 217T428 60T221 0H74L170 685H304Q429 685 505 630ZM141 50H230Q334 50 399 105T492 246T521 430Q521 551 463 593T307 635H222L141 50Z" />
<glyph unicode="E" glyph-name="E" horiz-adv-x="509" d="M222 635L186 380H428L422 330H180L141 50H434L426 0H74L170 685H516L502 635H222Z" />
<glyph unicode="F" glyph-name="F" horiz-adv-x="478" d="M222 635L185 368H422L415 318H178L133 0H74L170 685H510L496 635H222Z" />
<glyph unicode="G" glyph-name="G" horiz-adv-x="615" d="M462 696T506 679T589 627L549 591Q517 620 484 632T406 645Q316 645 255 587T163 439T133 253Q133 146 180 93T316 40Q395 40 463 77L498 319H366L365 369H564L520 47Q422 -11 310 -11Q198 -11 135 58T71
260Q71 366 108 466T222 631T406 696Q462 696 506 679Z" />
<glyph unicode="H" glyph-name="H" horiz-adv-x="667" d="M180 335L133 0H74L170 685H229L187 386H515L557 685H616L520 0H460L508 335H180Z" />
<glyph unicode="I" glyph-name="I" horiz-adv-x="281" d="M74 0L170 685H230L134 0H74Z" />
<glyph unicode="J" glyph-name="J" horiz-adv-x="289" d="M151 29T131 -9T74 -71T-23 -119L-36 -74Q13 -54 40 -33T80 19T101 97L184 685H243L160 90Q151 29 131 -9Z" />
<glyph unicode="K" glyph-name="K" horiz-adv-x="545" d="M74 0L170 685H229L133 0H74ZM508 0H437L189 367L516 685H588L258 365L508 0Z" />
<glyph unicode="L" glyph-name="L" horiz-adv-x="472" d="M426 54L410 0H74L170 685H229L141 54H426Z" />
<glyph unicode="M" glyph-name="M" horiz-adv-x="776" d="M604 0L619 330Q626 512 636 628L387 81H330L229 626Q219 562 165 328L89 0H32L193 685H272L368 151L606 685H692L661 0H604Z" />
<glyph unicode="N" glyph-name="N" horiz-adv-x="670" d="M446 0L209 631Q208 586 203 531T184 381L130 0H74L170 685H247L484 55Q487 144 504 270L562 685H619L522 0H446Z" />
<glyph unicode="O" glyph-name="O" horiz-adv-x="688" d="M514 696T577 626T640 424Q640 324 607 224T500 57T309 -11Q199 -11 135 60T71 262Q71 359 105 459T214 627T404 696Q514 696 577 626ZM305 645T245 584T159 433T133 256Q133 149 180 95T310 40Q408 40
468 102T553 253T578 432Q578 538 532 591T401 645Q305 645 245 584Z" />
<glyph unicode="P" glyph-name="P" horiz-adv-x="567" d="M438 685T497 642T556 512Q556 407 489 337T271 267H170L133 0H74L170 685H328Q438 685 497 642ZM394 316T444 371T494 512Q494 578 451 607T324 636H222L177 316H274Q394 316 444 371Z" />
<glyph unicode="Q" glyph-name="Q" horiz-adv-x="678" d="M640 343T619 261T549 114T425 21Q478 19 524 3T605 -45L561 -93Q514 -46 459 -29T309 -11Q199 -11 135 60T71 262Q71 359 105 459T214 627T404 696Q514 696 577 626T640 424Q640 343 619 261ZM133 149T180
95T310 40Q408 40 468 102T553 253T578 432Q578 538 532 591T401 645Q305 645 245 584T159 433T133 256Q133 149 180 95Z" />
<glyph unicode="R" glyph-name="R" horiz-adv-x="587" d="M553 455T511 397T373 316L517 0H451L315 307H176L133 0H74L170 685H334Q446 685 499 646T553 528Q553 455 511 397ZM402 356T446 407T491 530Q491 585 454 610T334 636H222L183 356H301Q402 356 446 407Z" />
<glyph unicode="S" glyph-name="S" horiz-adv-x="536" d="M384 696T429 677T511 619L473 583Q441 616 406 630T324 645Q254 645 208 610T162 517Q162 471 192 443T300 389Q387 362 431 320T475 204Q475 154 449 105T366 22T221 -11Q153 -11 103 12T13 77L52 113Q85
77 125 59T222 40Q283 40 326 62T392 122T414 202Q414 253 382 284T274 342Q183 370 143 410T102 515Q102 557 126 599T201 668T324 696Q384 696 429 677Z" />
<glyph unicode="T" glyph-name="T" horiz-adv-x="492" d="M328 632L239 0H179L268 632H66L74 685H542L527 632H328Z" />
<glyph unicode="U" glyph-name="U" horiz-adv-x="649" d="M527 110T462 50T289 -11Q191 -11 141 38T91 172Q91 194 94 216L160 685H219L154 217Q151 195 151 174Q151 41 290 41Q375 41 422 88T482 221L548 685H608L542 212Q527 110 462 50Z" />
<glyph unicode="V" glyph-name="V" horiz-adv-x="544" d="M201 0L75 685H137L242 62L524 685H586L268 0H201Z" />
<glyph unicode="W" glyph-name="W" horiz-adv-x="807" d="M515 0L453 618L217 0H144L90 685H149L190 57L428 685H495L559 56L779 685H836L589 0H515Z" />
<glyph unicode="X" glyph-name="X" horiz-adv-x="509" d="M464 0H399L264 327L39 0H-27L232 369L233 370L90 685H155L271 410L467 685H533L305 371L303 369L464 0Z" />
<glyph unicode="Y" glyph-name="Y" horiz-adv-x="520" d="M254 0H194L232 267L73 685H136L267 322L500 685H567L292 268L254 0Z" />
<glyph unicode="Z" glyph-name="Z" horiz-adv-x="513" d="M75 53H430L415 0H-2L5 50L450 633H124L132 685H525L519 636L75 53Z" />
<glyph unicode="[" glyph-name="bracketleft" horiz-adv-x="314" d="M207 759L91 -65H203L196 -112H31L160 807H326L319 759H207Z" />
<glyph unicode="\" glyph-name="backslash" horiz-adv-x="517" d="M298 -100L193 791L243 802L349 -88L298 -100Z" />
<glyph unicode="]" glyph-name="bracketright" horiz-adv-x="315" d="M13 -112L19 -65H131L248 759H136L142 807H308L179 -112H13Z" />
<glyph unicode="^" glyph-name="asciicircum" horiz-adv-x="528" d="M445 527L337 775L159 527H93L320 832H368L509 527H445Z" />
<glyph unicode="_" glyph-name="underscore" horiz-adv-x="517" d="M443 -71L436 -122H-26L-18 -71H443Z" />
<glyph unicode="`" glyph-name="grave" horiz-adv-x="272" d="M278 645L95 730L128 782L300 678L278 645Z" />
<glyph unicode="a" glyph-name="a" horiz-adv-x="560" d="M376 534T414 524T497 491L440 114Q438 90 438 83Q438 60 446 49T471 30L454 -11Q419 -4 402 17T384 84Q354 40 313 15T223 -11Q145 -11 102 43T58 192Q58 270 86 349T174 481T327 534Q376 534 414 524ZM257
487T210 441T141 327T119 192Q119 116 148 77T233 37Q279 37 316 65T389 148L436 463Q386 487 329 487Q257 487 210 441Z" />
<glyph unicode="b" glyph-name="b" horiz-adv-x="571" d="M265 534T355 534Q431 534 472 483T513 336Q513 256 486 177T399 43T243 -11Q200 -11 162 -3T72 23L173 736L231 743L191 457Q265 534 355 534ZM296 486T259 464T182 398L135 58Q162 47 187 42T246 37Q319
37 366 85T433 202T454 340Q454 486 342 486Q296 486 259 464Z" />
<glyph unicode="c" glyph-name="c" horiz-adv-x="467" d="M406 534T461 480L428 444Q406 465 381 475T321 485Q250 485 205 440T140 329T120 197Q120 119 155 80T251 40Q287 40 317 51T380 84L405 43Q334 -11 250 -11Q160 -11 110 44T60 200Q60 276 87 353T172
482T320 534Q406 534 461 480Z" />
<glyph unicode="d" glyph-name="d" horiz-adv-x="583" d="M441 0H391L398 106Q330 -11 225 -11Q149 -11 107 44T64 195Q64 271 89 349T169 480T309 534Q399 534 448 462L488 743L545 736L441 0ZM250 486T207 440T144 326T125 192Q125 116 153 77T234 37Q288 37
327 73T409 181L441 409Q420 445 391 465T317 486Q250 486 207 440Z" />
<glyph unicode="e" glyph-name="e" horiz-adv-x="520" d="M481 313T387 266T120 206L119 200Q119 118 155 79T253 39Q294 39 328 52T401 92L427 51Q385 20 342 5T249 -11Q159 -11 109 44T59 199Q59 278 87 355T174 483T322 534Q396 534 438 499T481 408Q481 313
387 266ZM233 486T184 417T123 251Q273 263 347 300T421 406Q421 440 396 463T321 486Q233 486 184 417Z" />
<glyph unicode="f" glyph-name="f" horiz-adv-x="319" d="M229 695T216 606L205 523H342L329 476H198L134 17Q125 -51 105 -91T54 -155T-34 -204L-51 -159Q-10 -140 14 -122T53 -70T77 19L141 476H50L57 523H148L160 610Q168 672 211 707T321 743Q354 743 381
735T439 708L416 668Q391 683 369 689T322 695Q229 695 216 606Z" />
<glyph unicode="g" glyph-name="g" horiz-adv-x="565" d="M377 534T415 524T497 491L426 4Q395 -207 207 -207Q117 -207 34 -158L57 -114Q135 -157 205 -157Q347 -157 369 3L381 90Q351 48 311 24T224 0Q145 0 102 54T58 202Q58 280 86 356T175 483T328 534Q377
534 415 524ZM258 487T211 444T141 335T119 202Q119 128 148 89T232 48Q279 48 317 76T391 158L437 463Q387 487 329 487Q258 487 211 444Z" />
<glyph unicode="h" glyph-name="h" horiz-adv-x="581" d="M436 534T467 502T499 409Q499 392 496 372L444 0H386L438 367Q441 388 441 403Q441 447 421 466T359 485Q307 485 260 439T170 313L126 0H69L173 736L231 743L181 395Q218 460 269 497T376 534Q436 534 467 502Z" />
<glyph unicode="i" glyph-name="i" horiz-adv-x="269" d="M69 0L143 523H201L127 0H69ZM219 753T229 743T240 715Q240 696 228 683T194 669Q176 670 165 680T154 708Q154 728 167 740T200 753Q219 753 229 743Z" />
<glyph unicode="j" glyph-name="j" horiz-adv-x="267" d="M118 -51T98 -91T47 -155T-41 -204L-58 -160Q-17 -141 7 -122T46 -70T70 19L141 523H199L127 17Q118 -51 98 -91ZM217 753T227 743T238 715Q238 696 226 683T192 669Q174 670 163 680T152 708Q152 728
165 740T198 753Q217 753 227 743Z" />
<glyph unicode="k" glyph-name="k" horiz-adv-x="522" d="M223 466T272 500T377 534Q430 534 463 504T497 424Q497 359 453 311T324 236L443 0H379L254 254Q346 280 391 320T436 417Q436 450 418 468T364 487Q310 487 260 440T169 305L126 0H69L173 736L231 743L182
395Q223 466 272 500Z" />
<glyph unicode="l" glyph-name="l" horiz-adv-x="281" d="M132 83T132 73Q132 55 140 47T166 38Q183 38 204 46L217 3Q186 -11 156 -11Q117 -11 96 9T75 71Q75 79 77 97L167 736L225 743L133 88Q132 83 132 73Z" />
<glyph unicode="m" glyph-name="m" horiz-adv-x="849" d="M708 534T737 501T767 409Q767 389 763 372L711 0H653L705 367Q708 381 708 403Q708 485 640 485Q593 485 550 440T463 315L418 0H361L413 367Q416 388 416 403Q416 485 347 485Q300 485 257 439T170 313L126
0H69L143 523H191L178 394Q260 534 363 534Q414 534 444 500T473 405Q556 534 656 534Q708 534 737 501Z" />
<glyph unicode="n" glyph-name="n" horiz-adv-x="581" d="M436 534T467 502T499 409Q499 392 496 372L444 0H386L438 367Q441 388 441 403Q441 447 421 466T359 485Q308 485 260 438T170 313L126 0H69L143 523H191L178 393Q218 459 269 496T376 534Q436 534 467 502Z" />
<glyph unicode="o" glyph-name="o" horiz-adv-x="569" d="M411 534T460 479T510 324Q510 250 484 173T400 43T249 -11Q158 -11 109 45T59 201Q59 276 85 352T170 481T321 534Q411 534 460 479ZM247 486T202 440T138 326T119 196Q119 118 152 78T250 38Q321 38
365 84T429 197T449 328Q449 406 416 446T319 486Q247 486 202 440Z" />
<glyph unicode="p" glyph-name="p" horiz-adv-x="578" d="M431 534T472 483T513 336Q513 256 487 177T400 43T244 -11Q184 -11 127 9L99 -199L40 -207L143 523H192L186 451Q225 493 266 513T355 534Q431 534 472 483ZM296 486T259 464T182 398L135 58Q162 47 187
42T246 37Q319 37 366 85T433 202T454 340Q454 486 342 486Q296 486 259 464Z" />
<glyph unicode="q" glyph-name="q" horiz-adv-x="566" d="M376 534T414 524T497 491L401 -200L343 -207L383 79Q355 38 313 14T223 -11Q145 -11 102 43T58 192Q58 270 86 349T174 481T327 534Q376 534 414 524ZM257 487T210 441T141 327T119 192Q119 116 148 77T233
37Q279 37 317 65T391 148L436 463Q386 487 329 487Q257 487 210 441Z" />
<glyph unicode="r" glyph-name="r" horiz-adv-x="371" d="M374 534T395 527L379 473Q361 478 337 478Q283 478 243 433T169 298L126 0H69L143 523H192L178 396Q208 463 250 498T345 534Q374 534 395 527Z" />
<glyph unicode="s" glyph-name="s" horiz-adv-x="461" d="M353 534T421 475L389 437Q334 486 262 486Q204 486 170 462T136 397Q136 363 161 342T250 301Q328 277 362 242T397 147Q397 76 342 33T194 -11Q133 -11 89 8T9 60L45 97Q107 38 194 38Q262 38 299 67T337
144Q337 185 312 209T217 255Q140 280 109 312T77 395Q77 432 99 464T164 515T262 534Q353 534 421 475Z" />
<glyph unicode="t" glyph-name="t" horiz-adv-x="339" d="M142 109T142 102Q142 70 157 55T205 39Q242 39 289 64L309 21Q253 -11 196 -11Q143 -11 114 17T84 99Q84 108 86 128L135 476H47L54 523H143L172 650L218 655L199 523H333L320 476H193L144 129Q142 109 142 102Z" />
<glyph unicode="u" glyph-name="u" horiz-adv-x="577" d="M386 0L400 133Q364 66 316 28T207 -11Q148 -11 116 22T83 116Q83 127 85 151L138 523H195L143 153Q141 129 141 119Q141 76 160 57T218 37Q320 37 406 203L450 523H508L434 0H386Z" />
<glyph unicode="v" glyph-name="v" horiz-adv-x="467" d="M164 0L52 523H115L206 52L425 523H489L235 0H164Z" />
<glyph unicode="w" glyph-name="w" horiz-adv-x="696" d="M429 0L380 469L197 0H120L63 523H120L165 45L353 523H421L472 44L650 523H707L507 0H429Z" />
<glyph unicode="x" glyph-name="x" horiz-adv-x="456" d="M408 0H343L225 242L39 0H-27L196 281L71 523H135L235 315L394 523H460L265 276L408 0Z" />
<glyph unicode="y" glyph-name="y" horiz-adv-x="465" d="M195 -94T142 -140T-5 -204L-8 -159Q45 -146 77 -127T132 -79T180 1L159 0L52 523H113L203 44L426 523H487L238 -4Q195 -94 142 -140Z" />
<glyph unicode="z" glyph-name="z" horiz-adv-x="419" d="M70 50H354L341 0H-10L-3 45L344 473H81L88 523H423L417 478L70 50Z" />
<glyph unicode="{" glyph-name="braceleft" horiz-adv-x="323" d="M288 784T265 765T235 703L199 450Q193 400 173 379T111 348Q143 340 158 324T174 274Q174 261 171 246L135 -8Q134 -15 134 -28Q134 -58 151 -71T210 -85L206 -129Q146 -130 114 -105T81 -28Q81
-11 82 -2L118 253Q120 267 120 272Q120 300 104 312T51 324L57 374Q96 374 118 392T146 450L182 705Q191 771 228 799T338 828L335 784Q288 784 265 765Z" />
<glyph unicode="|" glyph-name="bar" horiz-adv-x="404" d="M125 -100L251 804H305L179 -100H125Z" />
<glyph unicode="}" glyph-name="braceright" horiz-adv-x="323" d="M60 -85T83 -66T113 -4L148 249Q155 299 175 320T237 351Q205 360 190 376T175 426Q175 443 177 453L213 707Q215 721 215 727Q215 757 197 770T138 784L141 828Q202 829 235 804T268 727Q268
719 266 701L230 446Q228 434 228 428Q228 399 244 387T297 375L290 325Q213 325 202 249L166 -6Q156 -72 120 -100T10 -129L13 -85Q60 -85 83 -66Z" />
<glyph unicode="~" glyph-name="asciitilde" horiz-adv-x="469" d="M199 371T218 363T262 337Q283 324 294 319T317 313Q340 313 356 324T392 360L429 336Q403 302 377 283T314 264Q289 264 269 273T225 298Q207 310 195 316T170 322Q146 322 130 310T92 273L56
296Q82 331 109 351T174 371Q199 371 218 363Z" />
<glyph unicode="&#xa0;" glyph-name="nbspace" horiz-adv-x="277" />
<glyph unicode="&#xa1;" glyph-name="exclamdown" horiz-adv-x="238" d="M168 475T180 463T192 431Q192 409 178 395T141 380Q122 380 110 392T97 423Q97 445 112 460T148 475Q168 475 180 463ZM27 -197L94 249H147L88 -197H27Z" />
<glyph unicode="&#xa2;" glyph-name="cent" horiz-adv-x="467" d="M250 485T205 440T140 329T120 197Q120 119 155 80T251 40Q287 40 317 51T380 84L405 43Q337 -8 259 -11L239 -150H188L208 -8Q137 5 99 58T60 200Q60 270 83 342T158 468T286 532L306 680H356L335
534Q410 529 461 480L428 444Q406 465 381 475T321 485Q250 485 205 440Z" />
<glyph unicode="&#xa3;" glyph-name="sterling" horiz-adv-x="511" d="M411 676T448 657T512 599L472 571Q450 600 425 613T361 627Q304 627 268 592T224 498L206 374H419L413 331H201L178 169Q171 120 153 95T96 50L422 51L407 0H14L19 49Q71 71 92 96T121 172L143
331H78L84 374H149L167 501Q178 579 228 627T359 676Q411 676 448 657Z" />
<glyph unicode="&#xa4;" glyph-name="currency" horiz-adv-x="560" d="M473 269T432 215L511 138L475 102L395 180Q349 146 280 146Q214 146 165 182L85 102L49 138L129 217Q90 270 90 341Q90 412 129 463L49 543L85 579L165 499Q214 535 280 535Q347 535 396
500L475 579L511 543L433 465Q473 414 473 341Q473 269 432 215ZM347 193T381 233T416 341Q416 409 382 449T281 489Q216 489 181 449T145 341Q145 273 180 233T281 193Q347 193 381 233Z" />
<glyph unicode="&#xa5;" glyph-name="yen" horiz-adv-x="509" d="M430 338L424 295H290L275 192H409L404 149H269L248 0H189L210 149H75L81 192H216L231 295H96L102 338H218L70 665H135L268 352L490 665H553L315 338H430Z" />
<glyph unicode="&#xa6;" glyph-name="brokenbar" horiz-adv-x="404" d="M213 146H159L210 508L217 558H271L220 197L213 146Z" />
<glyph unicode="&#xa7;" glyph-name="section" horiz-adv-x="530" d="M264 628T234 601T204 537Q204 504 228 483T317 437Q386 413 418 380T451 298Q451 256 428 225T352 163Q397 127 397 71Q397 9 347 -29T208 -68Q161 -68 123 -56T49 -21L77 20Q134 -20 211
-20Q279 -20 309 6T339 71Q339 105 316 125T229 170Q158 194 124 227T89 309Q89 351 114 384T191 447Q147 482 147 535Q147 601 199 638T329 675Q377 675 413 662T483 625L455 587Q423 608 394 618T327 628Q264 628 234 601ZM395 325T373 349T294 394Q254 408 226
424Q183 396 165 370T147 311Q147 280 170 258T249 213Q292 198 317 185Q361 213 378 239T395 295Q395 325 373 349Z" />
<glyph unicode="&#xa8;" glyph-name="dieresis" horiz-adv-x="327" d="M150 742T160 732T171 706Q171 688 159 676T129 663Q112 663 102 673T92 699Q92 717 104 729T134 742Q150 742 160 732ZM339 742T349 732T359 706Q359 688 347 676T317 663Q301 663 291 673T280
699Q280 717 292 729T322 742Q339 742 349 732Z" />
<glyph unicode="&#xa9;" glyph-name="copyright" horiz-adv-x="810" d="M487 736T555 697T662 589T702 435Q702 350 663 282T555 174T405 134Q322 134 255 173T148 281T108 435Q108 519 147 588T255 696T405 736Q487 736 555 697ZM334 697T277 663T186 569T153
435Q153 360 185 301T276 207T406 173Q477 173 534 207T624 301T657 435Q657 510 625 569T535 663T406 697Q334 697 277 663ZM438 616T462 608T509 581L484 548Q467 561 450 567T409 573Q368 573 339 541T310 436Q310 368 337 333T409 298Q434 298 453 305T493
327L515 294Q467 254 407 254Q341 254 300 303T259 436Q259 494 280 535T334 596T407 616Q438 616 462 608Z" />
<glyph unicode="&#xaa;" glyph-name="ordfeminine" horiz-adv-x="497" d="M429 685T429 585Q429 577 427 557L402 373Q400 357 400 351Q400 324 425 313L410 274Q382 280 368 293T349 337Q297 274 214 274Q159 274 128 304T96 383Q96 444 145 482T289 521H366L370
554Q372 565 372 579Q372 611 354 625T292 639Q245 639 176 616L164 659Q239 685 300 685Q429 685 429 585ZM219 481T187 453T155 385Q155 355 173 337T224 319Q298 319 347 387L360 481H294Q219 481 187 453ZM400 51L393 0H40L47 51H400Z" />
<glyph unicode="&#xab;" glyph-name="guillemotleft" horiz-adv-x="553" d="M136 288L243 80L206 56L72 268L76 307L267 520L302 495L136 288ZM349 288L456 80L419 56L285 268L289 307L480 520L515 495L349 288Z" />
<glyph unicode="&#xac;" glyph-name="logicalnot" horiz-adv-x="497" d="M360 168L378 296H73L81 347H440L414 168H360Z" />
<glyph unicode="&#xad;" glyph-name="softhyphen" horiz-adv-x="398" d="M341 338L334 288H71L78 338H341Z" />
<glyph unicode="&#xae;" glyph-name="registered" horiz-adv-x="639" d="M386 737T441 706T528 619T560 497Q560 431 528 376T441 289T319 257Q253 257 198 288T112 374T80 495Q80 561 112 616T198 704T319 737Q386 737 441 706ZM375 293T421 320T493 394T520
497Q520 554 494 600T422 673T319 700Q264 700 219 673T147 598T120 495Q120 438 146 392T218 320T319 293Q375 293 421 320ZM419 499T355 482L429 364H379L314 475H278V364H236V636H305Q419 636 419 555Q419 499 355 482ZM317 510Q376 510 376 555Q376 580 360
590T311 601H278V510H317Z" />
<glyph unicode="&#xaf;" glyph-name="overscore" horiz-adv-x="298" d="M94 723H334L327 676H87L94 723Z" />
<glyph unicode="&#xb0;" glyph-name="degree" horiz-adv-x="518" d="M184 396T146 431T107 525Q107 576 131 615T195 675T276 696Q333 696 371 661T409 568Q409 517 385 478T323 417T240 395Q184 396 146 431ZM290 439T324 475T359 569Q359 608 337 630T277 653Q234
653 200 623T159 543Q158 536 158 524Q158 484 181 462T240 439Q290 439 324 475Z" />
<glyph unicode="&#xb1;" glyph-name="plusminus" horiz-adv-x="491" d="M393 51L386 0H33L40 51H393ZM436 366L429 316H280L258 164H203L225 316H76L83 366H232L254 518H309L287 366H436Z" />
<glyph unicode="&#xb2;" glyph-name="twosuperior" horiz-adv-x="397" d="M276 742T306 714T336 640Q336 629 335 623Q330 585 309 553T246 481T113 364L309 365L296 322H45L50 364Q155 456 196 494T257 563T282 626Q283 630 283 639Q283 667 266 683T219 699Q164
699 119 652L86 681Q117 712 150 727T222 742Q276 742 306 714Z" />
<glyph unicode="&#xb3;" glyph-name="threesuperior" horiz-adv-x="397" d="M278 744T309 718T340 651Q340 646 338 636Q333 598 307 574T239 541Q276 539 299 517T323 455Q323 394 279 354T164 314Q85 314 41 372L75 397Q94 375 115 366T162 356Q213 357 242
385T272 460Q272 520 192 520H160L172 559H191Q226 559 254 579T287 638Q288 642 288 649Q288 674 271 688T222 702Q195 702 172 693T121 663L96 696Q127 720 157 731T225 743Q278 744 309 718Z" />
<glyph unicode="&#xb4;" glyph-name="acute" horiz-adv-x="273" d="M102 645L88 679L289 782L308 730L102 645Z" />
<glyph unicode="&#xb5;" glyph-name="uni00B5" horiz-adv-x="582" d="M451 124T451 86Q451 38 460 -4L407 -8Q395 39 395 74L396 100Q360 49 318 19T222 -11Q148 -11 123 41Q126 -2 114 -82L98 -197L40 -203L143 523H200L147 148Q145 130 145 122Q145 79 167 60T228
40Q323 40 398 159L449 523H506L457 175Q451 124 451 86Z" />
<glyph unicode="&#xb6;" glyph-name="paragraph" horiz-adv-x="706" d="M491 -197L435 -206L553 636H426L309 -197L254 -206L324 294Q225 298 178 342T131 457Q131 469 133 493Q146 585 213 634T389 684V681L390 684L614 685L491 -197Z" />
<glyph unicode="&#xb7;" glyph-name="middot" horiz-adv-x="207" d="M135 367T146 355T158 323Q158 301 144 286T107 271Q88 271 76 284T64 315Q64 337 78 352T115 367Q135 367 146 355Z" />
<glyph unicode="&#xb8;" glyph-name="cedilla" horiz-adv-x="243" d="M158 -71T158 -133Q158 -172 126 -199T43 -227Q-3 -227 -36 -205L-14 -170Q9 -185 42 -185Q68 -186 87 -173T107 -136Q107 -115 89 -106T24 -96L49 16H88L75 -64Q158 -71 158 -133Z" />
<glyph unicode="&#xb9;" glyph-name="onesuperior" horiz-adv-x="397" d="M177 322L227 681L118 621L99 657L242 736H286L227 322H177Z" />
<glyph unicode="&#xba;" glyph-name="ordmasculine" horiz-adv-x="497" d="M379 685T420 643T462 522Q462 464 441 407T373 312T253 274Q178 274 137 317T95 438Q95 495 116 551T184 646T304 685Q379 685 420 643ZM250 639T216 607T168 529T154 434Q154 378 179
349T253 320Q308 320 341 353T389 433T403 527Q403 583 378 611T304 639Q250 639 216 607ZM397 50L390 0H36L43 50H397Z" />
<glyph unicode="&#xbb;" glyph-name="guillemotright" horiz-adv-x="543" d="M270 268L79 56L45 80L210 288L103 495L140 520L274 307L270 268ZM473 268L282 56L248 80L413 288L306 495L343 520L477 307L473 268Z" />
<glyph unicode="&#xbc;" glyph-name="onequarter" horiz-adv-x="906" d="M171 272L221 631L112 571L92 607L236 685H280L221 272H171ZM224 -71L186 -51L703 747L741 728L224 -71ZM776 103L761 0H711L726 103H539L543 140L712 421L753 404L598 145H732L754 260H798L782
145H837L831 103H776Z" />
<glyph unicode="&#xbd;" glyph-name="onehalf" horiz-adv-x="906" d="M171 272L221 631L112 571L92 607L236 685H280L221 272H171ZM224 -71L186 -51L703 747L741 728L224 -71ZM777 420T807 392T837 318Q837 307 836 301Q831 263 810 231T747 159T614 42L810 43L797
0H546L551 42Q656 134 697 172T758 241T783 304Q784 308 784 317Q784 345 767 361T720 377Q665 377 620 330L587 359Q618 390 651 405T723 420Q777 420 807 392Z" />
<glyph unicode="&#xbe;" glyph-name="threequarters" horiz-adv-x="906" d="M272 693T302 667T333 600Q333 556 306 528T233 491Q269 489 293 467T317 405Q317 344 273 304T158 264Q80 264 34 321L69 347Q88 325 109 316T156 306Q207 306 236 334T265 409Q265
441 245 455T185 469H154L166 509H185Q220 509 247 529T281 587L282 599Q282 624 264 638T216 652Q188 652 165 643T115 613L90 645Q121 670 151 681T219 693Q272 693 302 667ZM224 -71L186 -51L703 747L741 728L224 -71ZM776 103L761 0H711L726 103H539L543 140L712
421L753 404L598 145H732L754 260H798L782 145H837L831 103H776Z" />
<glyph unicode="&#xbf;" glyph-name="questiondown" horiz-adv-x="445" d="M234 410T222 422T210 454Q210 476 225 491T262 506Q281 506 293 493T305 462Q305 440 291 425T254 410Q234 410 222 422ZM75 -207T35 -171T-5 -78Q-5 -33 13 -1T56 51T125 96Q161 118
181 133T215 171T229 222Q229 241 224 263L276 273Q286 245 286 219Q286 180 270 152T230 105T166 62Q129 40 107 23T70 -19T54 -77Q54 -115 80 -136T153 -158Q198 -158 236 -139T315 -81L351 -116Q304 -163 255 -185T149 -207Q75 -207 35 -171Z" />
<glyph unicode="&#xc0;" glyph-name="Agrave" horiz-adv-x="562" d="M127 187L40 0H-21L303 685H378L509 0H447L414 187H127ZM334 636L150 238H405L334 636ZM443 758L256 836L289 888L463 792L443 758Z" />
<glyph unicode="&#xc1;" glyph-name="Aacute" horiz-adv-x="562" d="M127 187L40 0H-21L303 685H378L509 0H447L414 187H127ZM334 636L150 238H405L334 636ZM261 758L250 792L449 888L469 836L261 758Z" />
<glyph unicode="&#xc2;" glyph-name="Acircumflex" horiz-adv-x="562" d="M127 187L40 0H-21L303 685H378L509 0H447L414 187H127ZM334 636L150 238H405L334 636ZM238 762L213 792L356 894H392L507 792L480 762L369 842L238 762Z" />
<glyph unicode="&#xc3;" glyph-name="Atilde" horiz-adv-x="562" d="M127 187L40 0H-21L303 685H378L509 0H447L414 187H127ZM334 636L150 238H405L334 636ZM399 793T383 800T349 820Q334 830 326 834T307 838Q287 838 274 829T243 797L210 818Q255 884 308 884Q325
884 338 878T370 860Q384 850 395 845T418 839Q434 839 448 849T481 884L515 862Q471 793 421 793Q399 793 383 800Z" />
<glyph unicode="&#xc4;" glyph-name="Adieresis" horiz-adv-x="562" d="M127 187L40 0H-21L303 685H378L509 0H447L414 187H127ZM334 636L150 238H405L334 636ZM286 868T296 858T306 832Q306 813 295 801T264 789Q248 789 238 799T227 825Q227 844 239 856T270
868Q286 868 296 858ZM474 868T484 858T495 832Q495 814 483 802T453 789Q437 789 427 799T416 825Q416 844 428 856T458 868Q474 868 484 858Z" />
<glyph unicode="&#xc5;" glyph-name="Aring" horiz-adv-x="562" d="M127 187L40 0H-21L303 685H378L509 0H447L414 187H127ZM334 636L150 238H405L334 636ZM415 947T439 924T463 864Q463 818 432 789T354 759Q314 759 290 782T265 842Q265 887 296 917T375 947Q415
947 439 924ZM347 911T331 895T309 850V840Q309 819 321 807T356 795Q382 795 398 811T419 856Q420 860 420 868Q420 888 408 899T373 911Q347 911 331 895Z" />
<glyph unicode="&#xc6;" glyph-name="AE" horiz-adv-x="780" d="M439 379H696L689 330H444L477 50H705L697 0H425L405 184H121L26 0H-37L325 685H746L732 635H409L439 379ZM356 637L147 234H399L356 637Z" />
<glyph unicode="&#xc7;" glyph-name="Ccedilla" horiz-adv-x="548" d="M309 645T248 586T160 438T133 260Q133 151 181 97T309 42Q358 42 393 57T469 101L497 58Q412 -11 305 -11H304L295 -64Q378 -70 378 -133Q378 -172 346 -199T263 -227Q215 -227 185 -204L207
-170Q229 -185 262 -185Q288 -186 307 -173T327 -136Q327 -115 309 -106T245 -95L264 -8Q175 6 123 76T71 263Q71 363 105 462T214 629T399 696Q454 696 494 680T569 632L532 594Q502 621 472 633T403 645Q309 645 248 586Z" />
<glyph unicode="&#xc8;" glyph-name="Egrave" horiz-adv-x="509" d="M222 635L186 380H428L422 330H180L141 50H434L426 0H74L170 685H516L502 635H222ZM450 758L263 836L296 888L470 792L450 758Z" />
<glyph unicode="&#xc9;" glyph-name="Eacute" horiz-adv-x="509" d="M222 635L186 380H428L422 330H180L141 50H434L426 0H74L170 685H516L502 635H222ZM268 758L257 792L456 888L476 836L268 758Z" />
<glyph unicode="&#xca;" glyph-name="Ecircumflex" horiz-adv-x="509" d="M222 635L186 380H428L422 330H180L141 50H434L426 0H74L170 685H516L502 635H222ZM245 762L220 792L363 894H399L514 792L487 762L376 842L245 762Z" />
<glyph unicode="&#xcb;" glyph-name="Edieresis" horiz-adv-x="509" d="M222 635L186 380H428L422 330H180L141 50H434L426 0H74L170 685H516L502 635H222ZM292 868T302 858T312 832Q312 813 301 801T270 789Q254 789 244 799T233 825Q233 844 245 856T276 868Q292
868 302 858ZM480 868T490 858T501 832Q501 814 489 802T459 789Q443 789 433 799T422 825Q422 844 434 856T464 868Q480 868 490 858Z" />
<glyph unicode="&#xcc;" glyph-name="Igrave" horiz-adv-x="281" d="M74 0L170 685H230L134 0H74ZM303 758L116 836L149 888L323 792L303 758Z" />
<glyph unicode="&#xcd;" glyph-name="Iacute" horiz-adv-x="281" d="M74 0L170 685H230L134 0H74ZM121 758L110 792L309 888L329 836L121 758Z" />
<glyph unicode="&#xce;" glyph-name="Icircumflex" horiz-adv-x="281" d="M74 0L170 685H230L134 0H74ZM354 762L329 792L472 894H508L623 792L596 762L485 842L354 762Z" />
<glyph unicode="&#xcf;" glyph-name="Idieresis" horiz-adv-x="281" d="M74 0L170 685H230L134 0H74ZM145 868T155 858T165 832Q165 813 154 801T123 789Q107 789 97 799T86 825Q86 844 98 856T129 868Q145 868 155 858ZM333 868T343 858T354 832Q354 814 342
802T312 789Q296 789 286 799T275 825Q275 844 287 856T317 868Q333 868 343 858Z" />
<glyph unicode="&#xd0;" glyph-name="Eth" horiz-adv-x="629" d="M429 685T505 630T581 428Q581 314 545 217T428 60T221 0H73L119 330H33L39 376H126L170 685H304Q429 685 505 630ZM334 50T399 105T492 246T521 430Q521 551 463 593T307 635H222L186 376H364L357
330H179L141 50H230Q334 50 399 105Z" />
<glyph unicode="&#xd1;" glyph-name="Ntilde" horiz-adv-x="670" d="M446 0L209 631Q208 586 203 531T184 381L130 0H74L170 685H247L484 55Q487 144 504 270L562 685H619L522 0H446ZM462 793T446 800T412 820Q397 830 389 834T370 838Q350 838 337 829T306 797L273
818Q318 884 371 884Q388 884 401 878T433 860Q447 850 458 845T481 839Q497 839 511 849T544 884L578 862Q534 793 484 793Q462 793 446 800Z" />
<glyph unicode="&#xd2;" glyph-name="Ograve" horiz-adv-x="688" d="M514 696T577 626T640 424Q640 324 607 224T500 57T309 -11Q199 -11 135 60T71 262Q71 359 105 459T214 627T404 696Q514 696 577 626ZM305 645T245 584T159 433T133 256Q133 149 180 95T310
40Q408 40 468 102T553 253T578 432Q578 538 532 591T401 645Q305 645 245 584ZM500 758L313 836L346 888L520 792L500 758Z" />
<glyph unicode="&#xd3;" glyph-name="Oacute" horiz-adv-x="688" d="M514 696T577 626T640 424Q640 324 607 224T500 57T309 -11Q199 -11 135 60T71 262Q71 359 105 459T214 627T404 696Q514 696 577 626ZM305 645T245 584T159 433T133 256Q133 149 180 95T310
40Q408 40 468 102T553 253T578 432Q578 538 532 591T401 645Q305 645 245 584ZM318 758L307 792L506 888L526 836L318 758Z" />
<glyph unicode="&#xd4;" glyph-name="Ocircumflex" horiz-adv-x="688" d="M514 696T577 626T640 424Q640 324 607 224T500 57T309 -11Q199 -11 135 60T71 262Q71 359 105 459T214 627T404 696Q514 696 577 626ZM305 645T245 584T159 433T133 256Q133 149 180 95T310
40Q408 40 468 102T553 253T578 432Q578 538 532 591T401 645Q305 645 245 584ZM295 762L270 792L413 894H449L564 792L537 762L426 842L295 762Z" />
<glyph unicode="&#xd5;" glyph-name="Otilde" horiz-adv-x="688" d="M514 696T577 626T640 424Q640 324 607 224T500 57T309 -11Q199 -11 135 60T71 262Q71 359 105 459T214 627T404 696Q514 696 577 626ZM305 645T245 584T159 433T133 256Q133 149 180 95T310
40Q408 40 468 102T553 253T578 432Q578 538 532 591T401 645Q305 645 245 584ZM456 793T440 800T406 820Q391 830 383 834T364 838Q344 838 331 829T300 797L267 818Q312 884 365 884Q382 884 395 878T427 860Q441 850 452 845T475 839Q491 839 505 849T538 884L572
862Q528 793 478 793Q456 793 440 800Z" />
<glyph unicode="&#xd6;" glyph-name="Odieresis" horiz-adv-x="688" d="M514 696T577 626T640 424Q640 324 607 224T500 57T309 -11Q199 -11 135 60T71 262Q71 359 105 459T214 627T404 696Q514 696 577 626ZM305 645T245 584T159 433T133 256Q133 149 180 95T310
40Q408 40 468 102T553 253T578 432Q578 538 532 591T401 645Q305 645 245 584ZM342 868T352 858T362 832Q362 813 351 801T320 789Q304 789 294 799T283 825Q283 844 295 856T326 868Q342 868 352 858ZM530 868T540 858T551 832Q551 814 539 802T509 789Q493 789
483 799T472 825Q472 844 484 856T514 868Q530 868 540 858Z" />
<glyph unicode="&#xd7;" glyph-name="multiply" horiz-adv-x="491" d="M287 307L395 180L354 144L247 271L106 144L73 180L216 307L108 434L149 471L255 343L398 471L431 434L287 307Z" />
<glyph unicode="&#xd8;" glyph-name="Oslash" horiz-adv-x="688" d="M580 637T610 575T640 424Q640 324 607 224T500 57T309 -11Q269 -11 231 0L179 -120L130 -105L185 19Q130 50 101 112T71 262Q71 359 105 459T214 627T404 696Q446 696 479 686L532 810L582
796L524 668Q580 637 610 575ZM133 116T212 65L462 638Q437 645 401 645Q305 645 245 584T159 433T133 256Q133 116 212 65ZM408 40T468 102T553 253T578 432Q578 575 498 622L248 49Q277 40 310 40Q408 40 468 102Z" />
<glyph unicode="&#xd9;" glyph-name="Ugrave" horiz-adv-x="649" d="M527 110T462 50T289 -11Q191 -11 141 38T91 172Q91 194 94 216L160 685H219L154 217Q151 195 151 174Q151 41 290 41Q375 41 422 88T482 221L548 685H608L542 212Q527 110 462 50ZM489 758L302
836L335 888L509 792L489 758Z" />
<glyph unicode="&#xda;" glyph-name="Uacute" horiz-adv-x="649" d="M527 110T462 50T289 -11Q191 -11 141 38T91 172Q91 194 94 216L160 685H219L154 217Q151 195 151 174Q151 41 290 41Q375 41 422 88T482 221L548 685H608L542 212Q527 110 462 50ZM307 758L296
792L495 888L515 836L307 758Z" />
<glyph unicode="&#xdb;" glyph-name="Ucircumflex" horiz-adv-x="649" d="M527 110T462 50T289 -11Q191 -11 141 38T91 172Q91 194 94 216L160 685H219L154 217Q151 195 151 174Q151 41 290 41Q375 41 422 88T482 221L548 685H608L542 212Q527 110 462 50ZM284
762L259 792L402 894H438L553 792L526 762L415 842L284 762Z" />
<glyph unicode="&#xdc;" glyph-name="Udieresis" horiz-adv-x="649" d="M527 110T462 50T289 -11Q191 -11 141 38T91 172Q91 194 94 216L160 685H219L154 217Q151 195 151 174Q151 41 290 41Q375 41 422 88T482 221L548 685H608L542 212Q527 110 462 50ZM331 868T341
858T351 832Q351 813 340 801T309 789Q293 789 283 799T272 825Q272 844 284 856T315 868Q331 868 341 858ZM519 868T529 858T540 832Q540 814 528 802T498 789Q482 789 472 799T461 825Q461 844 473 856T503 868Q519 868 529 858Z" />
<glyph unicode="&#xdd;" glyph-name="Yacute" horiz-adv-x="520" d="M254 0H194L232 267L73 685H136L267 322L500 685H567L292 268L254 0ZM239 758L228 792L427 888L447 836L239 758Z" />
<glyph unicode="&#xde;" glyph-name="Thorn" horiz-adv-x="567" d="M539 563T539 385Q539 321 512 265T421 172T252 136H152L133 0H74L170 685H229L212 563H311Q539 563 539 385ZM374 186T425 242T477 384Q477 455 435 484T308 513H205L159 186H256Q374 186 425 242Z" />
<glyph unicode="&#xdf;" glyph-name="germandbls" horiz-adv-x="579" d="M362 395T375 379T419 339Q465 303 491 266T518 169Q518 128 497 87T434 17T330 -11Q298 -11 269 -3T218 17L240 58Q282 38 326 38Q372 38 402 59T446 110T460 168Q460 215 439 244T375
309Q341 337 324 358T306 410Q307 445 324 466T376 514Q412 541 430 564T449 624Q449 658 424 677T356 696Q295 696 254 656T202 536L128 17Q119 -51 99 -91T48 -155T-40 -204L-57 -159Q-16 -140 8 -122T47 -70T71 19L145 542Q158 638 215 690T357 743Q425 743
465 710T505 624Q505 577 483 549T420 491Q391 470 377 454T362 416Q362 395 375 379Z" />
<glyph unicode="&#xe0;" glyph-name="agrave" horiz-adv-x="560" d="M376 534T414 524T497 491L440 114Q438 90 438 83Q438 60 446 49T471 30L454 -11Q419 -4 402 17T384 84Q354 40 313 15T223 -11Q145 -11 102 43T58 192Q58 270 86 349T174 481T327 534Q376 534
414 524ZM257 487T210 441T141 327T119 192Q119 116 148 77T233 37Q279 37 316 65T389 148L436 463Q386 487 329 487Q257 487 210 441ZM445 645L262 730L295 782L467 678L445 645Z" />
<glyph unicode="&#xe1;" glyph-name="aacute" horiz-adv-x="560" d="M376 534T414 524T497 491L440 114Q438 90 438 83Q438 60 446 49T471 30L454 -11Q419 -4 402 17T384 84Q354 40 313 15T223 -11Q145 -11 102 43T58 192Q58 270 86 349T174 481T327 534Q376 534
414 524ZM257 487T210 441T141 327T119 192Q119 116 148 77T233 37Q279 37 316 65T389 148L436 463Q386 487 329 487Q257 487 210 441ZM252 645L238 679L439 782L458 730L252 645Z" />
<glyph unicode="&#xe2;" glyph-name="acircumflex" horiz-adv-x="560" d="M376 534T414 524T497 491L440 114Q438 90 438 83Q438 60 446 49T471 30L454 -11Q419 -4 402 17T384 84Q354 40 313 15T223 -11Q145 -11 102 43T58 192Q58 270 86 349T174 481T327 534Q376
534 414 524ZM257 487T210 441T141 327T119 192Q119 116 148 77T233 37Q279 37 316 65T389 148L436 463Q386 487 329 487Q257 487 210 441ZM352 779H387L501 674L473 643L364 728L233 643L208 674L352 779Z" />
<glyph unicode="&#xe3;" glyph-name="atilde" horiz-adv-x="560" d="M376 534T414 524T497 491L440 114Q438 90 438 83Q438 60 446 49T471 30L454 -11Q419 -4 402 17T384 84Q354 40 313 15T223 -11Q145 -11 102 43T58 192Q58 270 86 349T174 481T327 534Q376 534
414 524ZM257 487T210 441T141 327T119 192Q119 116 148 77T233 37Q279 37 316 65T389 148L436 463Q386 487 329 487Q257 487 210 441ZM397 667T381 674T346 694Q344 695 336 701T320 709T305 712Q285 712 273 703T240 670L207 692Q252 758 305 758Q322 758 335
752T367 734Q382 723 393 718T415 713Q431 713 445 723T478 758L512 736Q468 666 418 666Q397 667 381 674Z" />
<glyph unicode="&#xe4;" glyph-name="adieresis" horiz-adv-x="560" d="M376 534T414 524T497 491L440 114Q438 90 438 83Q438 60 446 49T471 30L454 -11Q419 -4 402 17T384 84Q354 40 313 15T223 -11Q145 -11 102 43T58 192Q58 270 86 349T174 481T327 534Q376
534 414 524ZM257 487T210 441T141 327T119 192Q119 116 148 77T233 37Q279 37 316 65T389 148L436 463Q386 487 329 487Q257 487 210 441ZM276 742T286 732T297 706Q297 688 285 676T255 663Q238 663 228 673T218 699Q218 717 230 729T260 742Q276 742 286 732ZM465
742T475 732T485 706Q485 688 473 676T443 663Q427 663 417 673T406 699Q406 717 418 729T448 742Q465 742 475 732Z" />
<glyph unicode="&#xe5;" glyph-name="aring" horiz-adv-x="560" d="M376 534T414 524T497 491L440 114Q438 90 438 83Q438 60 446 49T471 30L454 -11Q419 -4 402 17T384 84Q354 40 313 15T223 -11Q145 -11 102 43T58 192Q58 270 86 349T174 481T327 534Q376 534
414 524ZM257 487T210 441T141 327T119 192Q119 116 148 77T233 37Q279 37 316 65T389 148L436 463Q386 487 329 487Q257 487 210 441ZM411 821T435 798T460 738Q460 693 429 663T350 633Q311 633 287 656T262 716Q262 761 293 791T371 821Q411 821 435 798ZM343
785T327 769T306 723Q305 720 305 714Q305 693 317 681T352 669Q378 669 394 685T415 730Q417 738 417 742Q417 762 404 773T369 785Q343 785 327 769Z" />
<glyph unicode="&#xe6;" glyph-name="ae" horiz-adv-x="847" d="M365 534T402 507T451 432Q475 473 526 503T641 534Q714 534 756 499T798 407Q798 312 704 267T434 207Q434 39 570 39Q611 39 645 52T717 92L744 51Q702 20 659 5T566 -11Q504 -11 460 16T395 93Q350
37 301 13T194 -11Q125 -11 86 26T46 125Q46 202 104 253T287 304H389Q401 353 413 382Q411 428 378 456T290 485Q229 485 147 456L134 502Q223 534 301 534Q365 534 402 507ZM551 486T500 418T437 253Q589 265 663 300T737 405Q737 439 713 462T641 486Q551 486
500 418ZM198 261T153 224T108 125Q108 82 133 59T204 36Q253 36 296 61T382 142Q377 167 377 201Q377 229 381 261H293Q198 261 153 224Z" />
<glyph unicode="&#xe7;" glyph-name="ccedilla" horiz-adv-x="467" d="M250 485T205 440T140 329T120 197Q120 119 155 80T251 40Q287 40 317 51T380 84L405 43Q337 -8 258 -11L249 -64Q332 -70 332 -133Q332 -172 301 -199T218 -227Q169 -227 139 -204L161 -170Q184
-185 217 -185Q243 -186 262 -173T282 -136Q282 -115 264 -106T199 -95L218 -9Q143 0 102 54T60 200Q60 276 87 353T172 482T320 534Q406 534 461 480L428 444Q406 465 381 475T321 485Q250 485 205 440Z" />
<glyph unicode="&#xe8;" glyph-name="egrave" horiz-adv-x="520" d="M481 313T387 266T120 206L119 200Q119 118 155 79T253 39Q294 39 328 52T401 92L427 51Q385 20 342 5T249 -11Q159 -11 109 44T59 199Q59 278 87 355T174 483T322 534Q396 534 438 499T481
408Q481 313 387 266ZM233 486T184 417T123 251Q273 263 347 300T421 406Q421 440 396 463T321 486Q233 486 184 417ZM424 645L241 730L274 782L446 678L424 645Z" />
<glyph unicode="&#xe9;" glyph-name="eacute" horiz-adv-x="520" d="M481 313T387 266T120 206L119 200Q119 118 155 79T253 39Q294 39 328 52T401 92L427 51Q385 20 342 5T249 -11Q159 -11 109 44T59 199Q59 278 87 355T174 483T322 534Q396 534 438 499T481
408Q481 313 387 266ZM233 486T184 417T123 251Q273 263 347 300T421 406Q421 440 396 463T321 486Q233 486 184 417ZM231 645L217 679L418 782L437 730L231 645Z" />
<glyph unicode="&#xea;" glyph-name="ecircumflex" horiz-adv-x="520" d="M481 313T387 266T120 206L119 200Q119 118 155 79T253 39Q294 39 328 52T401 92L427 51Q385 20 342 5T249 -11Q159 -11 109 44T59 199Q59 278 87 355T174 483T322 534Q396 534 438 499T481
408Q481 313 387 266ZM233 486T184 417T123 251Q273 263 347 300T421 406Q421 440 396 463T321 486Q233 486 184 417ZM332 779H367L481 674L453 643L344 728L213 643L188 674L332 779Z" />
<glyph unicode="&#xeb;" glyph-name="edieresis" horiz-adv-x="520" d="M481 313T387 266T120 206L119 200Q119 118 155 79T253 39Q294 39 328 52T401 92L427 51Q385 20 342 5T249 -11Q159 -11 109 44T59 199Q59 278 87 355T174 483T322 534Q396 534 438 499T481
408Q481 313 387 266ZM233 486T184 417T123 251Q273 263 347 300T421 406Q421 440 396 463T321 486Q233 486 184 417ZM255 742T265 732T276 706Q276 688 264 676T234 663Q217 663 207 673T197 699Q197 717 209 729T239 742Q255 742 265 732ZM444 742T454 732T464
706Q464 688 452 676T422 663Q406 663 396 673T385 699Q385 717 397 729T427 742Q444 742 454 732Z" />
<glyph unicode="&#xec;" glyph-name="igrave" horiz-adv-x="269" d="M69 0L143 523H201L127 0H69ZM283 645L100 730L133 782L305 678L283 645Z" />
<glyph unicode="&#xed;" glyph-name="iacute" horiz-adv-x="269" d="M69 0L143 523H201L127 0H69ZM347 645L333 679L534 782L553 730L347 645Z" />
<glyph unicode="&#xee;" glyph-name="icircumflex" horiz-adv-x="269" d="M69 0L143 523H201L127 0H69ZM447 779H482L596 674L568 643L459 728L328 643L303 674L447 779Z" />
<glyph unicode="&#xef;" glyph-name="idieresis" horiz-adv-x="269" d="M69 0L143 523H201L127 0H69ZM371 742T381 732T392 706Q392 688 380 676T350 663Q333 663 323 673T313 699Q313 717 325 729T355 742Q371 742 381 732ZM560 742T570 732T580 706Q580 688
568 676T538 663Q522 663 512 673T501 699Q501 717 513 729T543 742Q560 742 570 732Z" />
<glyph unicode="&#xf0;" glyph-name="eth" horiz-adv-x="559" d="M437 612T466 545T495 385Q495 338 487 276Q467 137 401 63T236 -11Q153 -11 105 40T56 183Q56 252 79 317T154 425T284 468Q382 468 438 391Q436 471 414 527T341 629L253 552L213 572L304 654Q246
687 190 698L206 744Q286 726 342 688L422 762L454 731L378 662Q437 612 466 545ZM310 37T361 100T429 284Q432 301 434 334Q380 421 291 421Q198 421 157 350T115 182Q115 112 146 75T237 37Q310 37 361 100Z" />
<glyph unicode="&#xf1;" glyph-name="ntilde" horiz-adv-x="581" d="M436 534T467 502T499 409Q499 392 496 372L444 0H386L438 367Q441 388 441 403Q441 447 421 466T359 485Q308 485 260 438T170 313L126 0H69L143 523H191L178 393Q218 459 269 496T376 534Q436
534 467 502ZM397 667T381 674T346 694Q344 695 336 701T320 709T305 712Q285 712 273 703T240 670L207 692Q252 758 305 758Q322 758 335 752T367 734Q382 723 393 718T415 713Q431 713 445 723T478 758L512 736Q468 666 418 666Q397 667 381 674Z" />
<glyph unicode="&#xf2;" glyph-name="ograve" horiz-adv-x="569" d="M411 534T460 479T510 324Q510 250 484 173T400 43T249 -11Q158 -11 109 45T59 201Q59 276 85 352T170 481T321 534Q411 534 460 479ZM247 486T202 440T138 326T119 196Q119 118 152 78T250
38Q321 38 365 84T429 197T449 328Q449 406 416 446T319 486Q247 486 202 440ZM434 645L251 730L284 782L456 678L434 645Z" />
<glyph unicode="&#xf3;" glyph-name="oacute" horiz-adv-x="569" d="M411 534T460 479T510 324Q510 250 484 173T400 43T249 -11Q158 -11 109 45T59 201Q59 276 85 352T170 481T321 534Q411 534 460 479ZM247 486T202 440T138 326T119 196Q119 118 152 78T250
38Q321 38 365 84T429 197T449 328Q449 406 416 446T319 486Q247 486 202 440ZM240 645L226 679L427 782L446 730L240 645Z" />
<glyph unicode="&#xf4;" glyph-name="ocircumflex" horiz-adv-x="569" d="M411 534T460 479T510 324Q510 250 484 173T400 43T249 -11Q158 -11 109 45T59 201Q59 276 85 352T170 481T321 534Q411 534 460 479ZM247 486T202 440T138 326T119 196Q119 118 152 78T250
38Q321 38 365 84T429 197T449 328Q449 406 416 446T319 486Q247 486 202 440ZM341 779H376L490 674L462 643L353 728L222 643L197 674L341 779Z" />
<glyph unicode="&#xf5;" glyph-name="otilde" horiz-adv-x="569" d="M411 534T460 479T510 324Q510 250 484 173T400 43T249 -11Q158 -11 109 45T59 201Q59 276 85 352T170 481T321 534Q411 534 460 479ZM247 486T202 440T138 326T119 196Q119 118 152 78T250
38Q321 38 365 84T429 197T449 328Q449 406 416 446T319 486Q247 486 202 440ZM385 667T369 674T334 694Q332 695 324 701T308 709T293 712Q273 712 261 703T228 670L195 692Q240 758 293 758Q310 758 323 752T355 734Q370 723 381 718T403 713Q419 713 433 723T466
758L500 736Q456 666 406 666Q385 667 369 674Z" />
<glyph unicode="&#xf6;" glyph-name="odieresis" horiz-adv-x="569" d="M411 534T460 479T510 324Q510 250 484 173T400 43T249 -11Q158 -11 109 45T59 201Q59 276 85 352T170 481T321 534Q411 534 460 479ZM247 486T202 440T138 326T119 196Q119 118 152 78T250
38Q321 38 365 84T429 197T449 328Q449 406 416 446T319 486Q247 486 202 440ZM265 742T275 732T286 706Q286 688 274 676T244 663Q227 663 217 673T207 699Q207 717 219 729T249 742Q265 742 275 732ZM454 742T464 732T474 706Q474 688 462 676T432 663Q416 663
406 673T395 699Q395 717 407 729T437 742Q454 742 464 732Z" />
<glyph unicode="&#xf7;" glyph-name="divide" horiz-adv-x="491" d="M244 160T255 148T267 116Q267 95 253 80T216 65Q197 65 185 77T173 108Q173 130 187 145T224 160Q244 160 255 148ZM305 597T316 585T328 553Q328 532 314 517T277 502Q258 502 246 514T234
545Q234 567 248 582T285 597Q305 597 316 585ZM435 357L428 306H75L82 357H435Z" />
<glyph unicode="&#xf8;" glyph-name="oslash" horiz-adv-x="569" d="M428 506Q468 480 489 434T510 324Q510 250 484 173T400 43T249 -11Q215 -11 186 -2L128 -125L81 -111L142 17Q101 43 80 90T59 201Q59 276 85 352T170 481T321 534Q356 534 384 525L441 648L488
634L428 506ZM247 486T202 440T138 326T119 196Q119 99 170 62L367 479Q347 486 319 486Q247 486 202 440ZM222 38T250 38Q321 38 365 84T429 197T449 328Q449 424 401 461L204 45Q222 38 250 38Z" />
<glyph unicode="&#xf9;" glyph-name="ugrave" horiz-adv-x="577" d="M386 0L400 133Q364 66 316 28T207 -11Q148 -11 116 22T83 116Q83 127 85 151L138 523H195L143 153Q141 129 141 119Q141 76 160 57T218 37Q320 37 406 203L450 523H508L434 0H386ZM436 645L253
730L286 782L458 678L436 645Z" />
<glyph unicode="&#xfa;" glyph-name="uacute" horiz-adv-x="577" d="M386 0L400 133Q364 66 316 28T207 -11Q148 -11 116 22T83 116Q83 127 85 151L138 523H195L143 153Q141 129 141 119Q141 76 160 57T218 37Q320 37 406 203L450 523H508L434 0H386ZM243 645L229
679L430 782L449 730L243 645Z" />
<glyph unicode="&#xfb;" glyph-name="ucircumflex" horiz-adv-x="577" d="M386 0L400 133Q364 66 316 28T207 -11Q148 -11 116 22T83 116Q83 127 85 151L138 523H195L143 153Q141 129 141 119Q141 76 160 57T218 37Q320 37 406 203L450 523H508L434 0H386ZM343
779H378L492 674L464 643L355 728L224 643L199 674L343 779Z" />
<glyph unicode="&#xfc;" glyph-name="udieresis" horiz-adv-x="577" d="M386 0L400 133Q364 66 316 28T207 -11Q148 -11 116 22T83 116Q83 127 85 151L138 523H195L143 153Q141 129 141 119Q141 76 160 57T218 37Q320 37 406 203L450 523H508L434 0H386ZM267 742T277
732T288 706Q288 688 276 676T246 663Q229 663 219 673T209 699Q209 717 221 729T251 742Q267 742 277 732ZM456 742T466 732T476 706Q476 688 464 676T434 663Q418 663 408 673T397 699Q397 717 409 729T439 742Q456 742 466 732Z" />
<glyph unicode="&#xfd;" glyph-name="yacute" horiz-adv-x="465" d="M195 -94T142 -140T-5 -204L-8 -159Q45 -146 77 -127T132 -79T180 1L159 0L52 523H113L203 44L426 523H487L238 -4Q195 -94 142 -140ZM184 645L170 679L371 782L390 730L184 645Z" />
<glyph unicode="&#xfe;" glyph-name="thorn" horiz-adv-x="578" d="M431 534T472 483T513 336Q513 256 487 177T400 43T244 -11Q183 -11 127 12L98 -199L39 -207L173 736L231 743L190 457Q267 534 355 534Q431 534 472 483ZM320 37T366 85T433 202T454 340Q454
486 342 486Q296 486 259 464T182 398L135 59Q164 48 189 43T247 37Q320 37 366 85Z" />
<glyph unicode="&#xff;" glyph-name="ydieresis" horiz-adv-x="465" d="M195 -94T142 -140T-5 -204L-8 -159Q45 -146 77 -127T132 -79T180 1L159 0L52 523H113L203 44L426 523H487L238 -4Q195 -94 142 -140ZM208 742T218 732T229 706Q229 688 217 676T187 663Q170
663 160 673T150 699Q150 717 162 729T192 742Q208 742 218 732ZM397 742T407 732T417 706Q417 688 405 676T375 663Q359 663 349 673T338 699Q338 717 350 729T380 742Q397 742 407 732Z" />
<glyph unicode="&#x2013;" glyph-name="endash" horiz-adv-x="517" d="M488 338L481 288H42L50 338H488Z" />
<glyph unicode="&#x2014;" glyph-name="emdash" horiz-adv-x="779" d="M749 338L743 288H43L50 338H749Z" />
<glyph unicode="&#x2018;" glyph-name="quoteleft" horiz-adv-x="216" d="M133 527T122 538T111 566Q111 579 114 589T130 619L204 741H244L183 606Q201 595 201 572Q201 553 188 540T153 527Q133 527 122 538Z" />
<glyph unicode="&#x2019;" glyph-name="quoteright" horiz-adv-x="216" d="M186 741T197 730T208 702Q208 689 205 679T189 649L115 527H75L136 662Q118 673 118 696Q118 715 131 728T166 741Q186 741 197 730Z" />
<glyph unicode="&#x201a;" glyph-name="quotesinglbase" horiz-adv-x="216" d="M93 75T104 64T115 36Q115 23 112 13T96 -17L22 -139H-18L43 -4Q25 7 25 30Q25 49 38 62T73 75Q93 75 104 64Z" />
<glyph unicode="&#x201c;" glyph-name="quotedblleft" horiz-adv-x="368" d="M135 528T124 539T112 567Q112 580 115 590T130 619L205 742H244L184 606Q202 596 202 572Q202 554 189 541T154 528Q135 528 124 539ZM287 528T276 539T264 567Q264 579 267 589T283
619L357 742H397L336 606Q354 597 354 572Q354 554 341 541T306 528Q287 528 276 539Z" />
<glyph unicode="&#x201d;" glyph-name="quotedblright" horiz-adv-x="368" d="M186 742T197 731T209 703Q209 690 206 680T190 650L116 528H76L137 663Q119 674 119 697Q119 716 132 729T167 742Q186 742 197 731ZM338 742T349 731T361 703Q361 690 358 680T343
650L268 528H229L289 663Q271 674 271 697Q271 716 284 729T319 742Q338 742 349 731Z" />
<glyph unicode="&#x201e;" glyph-name="quotedblbase" horiz-adv-x="368" d="M93 75T104 64T115 36Q115 23 112 13T96 -17L22 -139H-18L43 -4Q25 7 25 30Q25 49 38 62T73 75Q93 75 104 64ZM245 75T256 64T267 36Q267 23 264 13T248 -17L174 -139H134L195 -4Q177
7 177 30Q177 49 190 62T225 75Q245 75 256 64Z" />
<glyph unicode="&#x2022;" glyph-name="bullet" horiz-adv-x="284" d="M192 420T210 402T228 355Q228 320 205 296T146 272Q117 272 99 290T80 337Q80 372 103 396T162 420Q192 420 210 402Z" />
<glyph unicode="&#x2039;" glyph-name="guilsinglleft" horiz-adv-x="339" d="M136 288L243 80L206 56L72 268L76 307L267 520L302 495L136 288Z" />
<glyph unicode="&#x203a;" glyph-name="guilsinglright" horiz-adv-x="340" d="M270 268L79 56L45 80L210 288L103 495L140 520L274 307L270 268Z" />
</font>
</defs>
</svg>
